<?xml version="1.0" encoding="utf-8"?>
<!-- Generator: Adobe Illustrator 23.0.5, SVG Export Plug-In . SVG Version: 6.00 Build 0)  -->
<svg xmlns="http://www.w3.org/2000/svg" xmlns:xlink="http://www.w3.org/1999/xlink" version="1.1" id="Layer_1" x="0px" y="0px" viewBox="0 0 1024 1024" style="enable-background:new 0 0 1024 1024;" xml:space="preserve">
<style xmlns="http://www.w3.org/2000/svg" type="text/css">
	.st0{fill:#FFFFFF;}
	.st1{fill:#000000;}
    .st3{fill:none;}
</style>
<g>
	<path d="M529.94,87c10.26,0.96,20.54,1.73,30.77,2.92c84.02,9.82,159.1,41.1,224.12,95.29c80.82,67.35,129.57,153.61,148.86,256.78   c6.17,32.98,7.01,66.4,4.43,99.61c-10.83,139.52-76.46,247.53-191.26,326.01c-52.87,36.14-111.92,57.56-175.21,66.82   c-16.1,2.36-32.52,2.56-48.79,3.78c-1.31,0.1-2.6,0.45-3.9,0.68c-9.67,0-19.33,0-29,0c-10.05-1.33-20.1-2.64-30.14-4   c-108.09-14.72-198.19-62.9-269.82-145.28c-55.98-64.38-88.88-139.47-100.19-223.59c-3.62-26.89-3.49-54.62-1.96-81.8   c7.65-136.2,88.29-277.01,230.07-349.89c45.16-23.21,93.01-37.61,143.29-44.02c9.08-1.16,18.24-1.59,27.37-2.4   c2.47-0.22,4.92-0.6,7.38-0.91C507.28,87,518.61,87,529.94,87z M933.9,513.05c2.88-215.73-173.13-420.68-420.92-420.64   C265.07,92.45,92.59,296.83,91.4,510.48c-1.18,211.88,166.27,416.49,410.22,422.64C754.86,939.5,937.98,729.55,933.9,513.05z"/>
	<path class="st1" d="M933.9,513.05c4.08,216.5-179.04,426.45-432.28,420.07C257.67,926.97,90.22,722.35,91.4,510.48   C92.59,296.83,265.07,92.45,512.97,92.41C760.76,92.37,936.77,297.32,933.9,513.05z M927.3,514.76c-0.06-0.53-0.11-1.07-0.17-1.6   c-2.89-0.47-5.78-0.91-8.66-1.41c-55.37-9.47-107.79-27.83-156.54-55.43c-58.29-33-108.03-76.48-149.38-129.27   c-49.34-62.98-80.47-134.15-94.8-212.77c-0.86-4.75-2.13-9.42-3.21-14.13c-0.52,0.05-1.05,0.09-1.57,0.14   c-0.36,0.99-0.86,1.96-1.04,2.98c-1.71,9.8-3.02,19.69-5.08,29.42c-10.89,51.62-30.16,100.09-56.45,145.68   c-16.53,28.67-37.76,54.01-59.84,78.52c-59.82,66.38-132.18,113.49-217.83,139.44c-20.27,6.14-41.24,9.94-61.87,14.89   c-2.46,0.59-4.82,1.63-7.22,2.46c1.25,1.37,2.29,1.7,3.36,1.94c17.98,3.99,36.19,7.14,53.89,12.11   c66.42,18.67,125.79,50.86,178.67,95.07c89.58,74.91,147.85,168.52,169.44,284.02c1.14,6.09,3.02,12.04,4.55,18.05   c0.55,0.03,1.09,0.06,1.64,0.09c17.72-105.49,64.04-196.33,139.75-271.63C730.66,578.02,821.86,532.32,927.3,514.76z"/>
	<path d="M927.3,514.76c-105.44,17.55-196.64,63.26-272.35,138.56c-75.71,75.3-122.03,166.14-139.75,271.63   c-0.55-0.03-1.09-0.06-1.64-0.09c-1.53-6.01-3.41-11.96-4.55-18.05c-21.59-115.5-79.86-209.11-169.44-284.02   c-52.88-44.21-112.25-76.4-178.67-95.07c-17.7-4.98-35.92-8.12-53.89-12.11c-1.07-0.24-2.11-0.57-3.36-1.94   c2.4-0.83,4.76-1.87,7.22-2.46c20.63-4.95,41.6-8.75,61.87-14.89c85.64-25.95,158.01-73.06,217.83-139.44   c22.08-24.5,43.31-49.85,59.84-78.52c26.29-45.59,45.55-94.07,56.45-145.68c2.05-9.73,3.37-19.61,5.08-29.42   c0.18-1.02,0.69-1.99,1.04-2.98c0.52-0.05,1.05-0.09,1.57-0.14c1.08,4.71,2.35,9.38,3.21,14.13   c14.32,78.63,45.46,149.79,94.8,212.77c41.36,52.79,91.09,96.27,149.38,129.27c48.75,27.6,101.17,45.96,156.54,55.43   c2.88,0.49,5.77,0.94,8.66,1.41C927.19,513.69,927.25,514.23,927.3,514.76z M566.33,476.31c2.16,5.23,5.6,12.78,8.39,20.56   c3.55,9.9,3.32,9.87,13.61,10.06c11.99,0.22,23.98,0.59,35.96,1.09c3.09,0.13,6.48,0.34,6.83,4.86c0.34,4.36-2.44,5.92-5.81,6.86   c-2.38,0.66-4.89,1.18-7.35,1.2c-13.46,0.11-26.93,0.05-39.35,0.05c-5.15,11.71-9.67,21.99-14.37,32.68   c2.81,2.79,5.91,6.01,9.18,9.06c18.99,17.73,37.93,35.51,57.13,53.02c3.19,2.91,7.4,5.91,11.45,6.43c7.83,1,16.11,1.49,23.79,0.01   c22.33-4.31,35.96-20.96,38.98-45.84c1.12-9.28,1.12-9.28,10.12-11.66c38.49-10.2,53.27-53.38,28.96-84.67   c-8.14-10.48-19.13-16.45-31.92-18.85c-5.37-1.01-6.93-3.46-7.21-8.55c-0.26-4.74-1.44-9.53-2.85-14.11   c-9.22-30-50.25-46.73-76.18-21.87c-12.38,11.87-25.41,23.07-37.62,35.1C580.48,459.2,573.9,467.66,566.33,476.31z M473.06,564.88   c-19.54,20.67-40.25,42.08-60.33,64.06c-7.26,7.94-8.94,18.46-8.2,29.04c1.78,25.52,21.8,41.54,41.21,44.49   c11.2,1.7,14.9,6.11,17.95,16.23c7.84,25.96,34.94,41.35,60.97,34.98c21.37-5.23,35.21-19.15,40.95-40.69   c2.35-8.82,2.54-8.65,11.35-9.16c20.65-1.19,35.22-12.45,43.56-30.34c8.09-17.35,5.83-34.32-8.31-48.71   c-19.61-19.96-39.04-40.09-58.57-60.14c-0.2-0.21-0.59-0.23-0.89-0.34c0.12,0.32,0.24,0.64,0.36,0.96   c-10.27,4.02-20.54,8.03-31.13,12.18c0,12,0.17,24.64-0.1,37.26c-0.08,3.91-0.83,7.99-2.19,11.65c-1.77,4.76-7.55,6.23-11.06,2.81   c-1.64-1.6-2.48-4.66-2.56-7.09c-0.44-13.65-0.45-27.31-0.87-40.96c-0.05-1.7-1.29-4.31-2.66-4.87   C493.26,572.35,483.77,568.92,473.06,564.88z M375.4,404.22c-4.57,0.76-9.24,1.17-13.7,2.34c-22.12,5.78-33.18,21.68-37.32,42.86   c-1.47,7.55-4.83,10.84-12.02,12.74c-21.28,5.61-36.11,23.71-38.08,44.32c-3.1,32.43,14.34,50.41,39.17,57.87   c2.38,0.72,5.02,1.11,7.01,2.44c1.6,1.07,3.31,3.29,3.42,5.1c1.22,20.57,9.27,37.12,28.36,46.39c17.41,8.45,34.97,9.23,50.07-4.92   c20.04-18.78,39.48-38.21,59.02-57.52c0.91-0.9,0.86-3.63,0.25-5.08c-3.21-7.64-7.45-14.93-9.9-22.79   c-1.5-4.81-3.91-5.92-8.04-5.95c-8.66-0.07-17.33,0.05-25.98-0.27c-4.95-0.18-9.96-0.7-14.8-1.75c-4.02-0.88-5.89-4.07-5.56-8.27   c0.36-4.6,3.63-4.74,7.18-4.75c12.32-0.03,24.65-0.04,36.97-0.35c8.06-0.2,7.63-0.57,10.2-7.89c2.63-7.48,6.33-14.58,9.28-21.96   c0.58-1.46,0.57-4.16-0.36-5.06c-20.17-19.62-40.49-39.08-60.81-58.54C392.97,406.67,384.64,404.44,375.4,404.22z M555.71,461.95   c8.17-8.24,17.65-17.58,26.87-27.17c11.19-11.64,22.22-23.44,33.21-35.27c14.29-15.39,9.48-40.89,0.47-52.36   c-10.26-13.05-22.71-22.26-40.32-22.48c-7.64-0.09-8.12-0.95-10.1-8.22c-0.61-2.24-1.23-4.48-1.91-6.71   c-7.35-24.05-36.05-40.87-60.53-35.14c-23.17,5.42-37.34,20-42.28,43.29c-0.94,4.46-3.04,6.81-7.64,6.82   c-13.25,0.03-24.07,6.14-33.66,14.42c-15.62,13.48-23.75,42.58-4.1,62.83c19.37,19.97,38.98,39.69,58.5,59.51   c0.2,0.2,0.61,0.19,1.02,0.3c2.7-1.5,5.39-3.15,8.22-4.52c2.99-1.44,6.07-2.7,9.17-3.89c4.12-1.58,9.95-1.88,11.99-4.84   c2.13-3.08,0.59-8.67,0.72-13.16c0.29-10.32,0.44-20.64,1.01-30.95c0.19-3.31,1.32-6.47,5.92-6.63c4.59-0.17,7.37,1.78,8.52,5.98   c0.7,2.54,1.13,5.24,1.14,7.86c0.05,11.49-0.19,22.99-0.06,34.48c0.02,1.53,1.25,3.92,2.51,4.41   C534.37,454.41,544.49,457.91,555.71,461.95z M625.31,514.57c-0.05-0.43-0.1-0.85-0.15-1.28c-1.24-0.14-2.47-0.37-3.71-0.4   c-13.49-0.37-26.98-0.77-40.47-1.03c-4.72-0.09-7.48-1.79-9.1-6.64c-2.99-8.96-6.54-17.76-10.4-26.38   c-1.92-4.3-1.77-7.24,1.78-10.57c13.98-13.11,27.62-26.57,41.63-39.63c7.67-7.15,15.66-13.97,23.83-20.54   c7.96-6.4,17.3-9.44,27.52-8.22c7.81,0.94,15.53,2.72,21.66,3.84c-16.81-16.56-34.85-34.33-52.72-51.94   c0.22,0.68,0.56,1.75,0.92,2.81c6.45,18.89,5.12,36.38-9.16,51.6c-2.39,2.55-4.54,5.33-6.99,7.82   c-16.72,16.97-33.56,33.84-50.2,50.89c-3.47,3.55-6.42,3.22-10.61,1.23c-8.21-3.89-16.66-7.35-25.23-10.35   c-6.35-2.23-7.35-3.04-7.28-9.84c0.13-12.33,0.27-24.65,0.02-36.98c-0.04-2.03-2.03-4.03-3.12-6.04c-0.88,2.03-2.47,4.05-2.53,6.11   c-0.35,12.49-0.43,24.99-0.44,37.49c0,4.62-1.79,7.09-6.4,8.67c-8.3,2.83-16.46,6.19-24.36,9.99c-4.48,2.16-7.5,1.91-11-1.69   c-13.02-13.37-26.38-26.41-39.41-39.77c-7.2-7.39-14.32-14.91-20.92-22.83c-7.99-9.6-10.7-21.03-8.61-33.26   c1.13-6.6,3.47-12.99,4.76-17.63c-17.13,17.46-35.59,36.26-53.81,54.83c0.8-0.25,2.18-0.63,3.52-1.11   c19.71-7.17,37.8-5.93,53.55,9.6c18.39,18.13,36.92,36.12,55.61,53.94c4.12,3.93,4.27,7.28,1.98,12.27   c-3.78,8.23-6.4,17-10.04,25.3c-1.05,2.39-3.6,4.82-6.03,5.74c-3.15,1.19-6.87,1.12-10.35,1.18c-10.5,0.19-20.99,0.17-31.49,0.27   c-1.7,0.02-3.41,0.21-5.11,0.32c-0.11,0.56-0.23,1.11-0.34,1.67c1.82,0.67,3.61,1.83,5.46,1.93c8.31,0.46,16.64,0.56,24.96,0.91   c5.64,0.24,11.34,0.27,16.87,1.23c2.17,0.37,4.8,2.6,5.77,4.67c4.23,8.99,7.85,18.27,11.85,27.37c1.43,3.26,1.46,6.03-1.21,8.63   c-20.06,19.51-40.03,39.13-60.19,58.53c-11.22,10.8-24.94,13.54-39.82,10.68c-6.23-1.2-12.25-3.54-16.6-4.84   c17.73,17.47,36.67,36.14,55.49,54.69c-3.68-8.38-6.02-17.27-5.25-26.82c1.11-13.63,7.3-24.69,16.7-34.26   c17.86-18.19,35.71-36.39,53.47-54.68c2.98-3.07,5.73-2.87,9.36-1.23c8.15,3.68,16.34,7.37,24.8,10.22   c5.04,1.7,7.09,4.37,6.79,9.41c-0.13,2.16-0.05,4.33-0.02,6.5c0.17,11.66,0.29,23.32,0.59,34.98c0.03,1.25,1.08,2.48,1.66,3.72   c1.05-1.07,2.71-1.98,3.02-3.23c0.75-3.04,1.17-6.24,1.18-9.38c0.03-10.66-0.13-21.33-0.32-31.99c-0.14-7.76,0.37-7.96,7.6-10.39   c7.98-2.69,15.89-5.81,23.42-9.55c4.69-2.33,7.83-2.07,11.42,1.7c8.62,9.04,17.68,17.68,26.29,26.73   c12.05,12.67,24.12,25.33,35.66,38.46c7.77,8.84,10.24,19.64,8.23,31.31c-0.94,5.46-2.06,10.88-3.09,16.32   c-0.41-0.45-0.82-0.9-1.22-1.35c16.81-16.74,33.63-33.47,50.44-50.21c-2.43,1.65-5.74,2.84-9.15,3.32   c-14.62,2.05-28.77,2.56-40.71-8.88c-21.28-20.41-42.91-40.46-64.43-60.61c-3.07-2.87-2.33-5.74-0.82-9.03   c3.89-8.44,7.95-16.83,11.21-25.51c1.74-4.64,3.99-6.61,9-6.6c12.32,0.02,24.65-0.38,36.97-0.78   C620.1,515.86,622.7,515.04,625.31,514.57z M514.37,125.07c-17.13,76.6-46.2,147.31-96.48,208.32c11.4-8.09,23.33-14,37.59-13.97   c0.89-3.32,1.64-6.37,2.52-9.39c7.71-26.35,33.88-44.01,61.08-41.25c24.32,2.47,44.52,19.88,50.8,44.3   c1.25,4.86,3.26,6.87,8.36,6.79c8.16-0.13,15.72,2.51,22.69,6.69c2.76,1.65,5.38,3.53,8.06,5.31   C561.66,270.06,529.79,201.43,514.37,125.07z M513.74,902.61c8.68-37.08,19.77-73.2,35.8-107.7   c15.94-34.32,35.64-66.37,58.23-96.72c-15.19,8.8-15.41,8.79-32.91,10.91c-1.49,0.18-3.26,2.22-4,3.81   c-3.28,7.03-5.14,14.98-9.51,21.18c-12.66,17.92-30.23,27.92-52.56,25.56c-21.48-2.27-38.43-12.62-47.63-33.12   c-2.49-5.54-4.05-11.5-5.73-16.4c-6.77-1.74-13.2-2.81-19.17-5.08c-5.86-2.23-11.26-5.67-17.57-8.94   C467.15,757.72,498.89,826.16,513.74,902.61z M697.76,419.4c6.63,9.1,10.71,19.08,11.6,30.04c0.42,5.22,2.77,6.6,7.31,7.75   c25.3,6.41,42.61,27.67,44.06,53.56c1.34,23.94-13.61,47.02-36.51,56.1c-4.46,1.77-10.62,1.7-13.29,4.81   c-2.68,3.11-1.47,9.28-2.85,13.84c-2.17,7.16-5.08,14.1-7.53,20.75c60.43-44.19,126.57-77.17,201.32-91.76   C827.23,496.78,757.87,468.22,697.76,419.4z M328.67,421.27c-59.09,45.58-125.9,76.7-199.97,92.51   c74.71,16.38,141.66,48.31,201.98,94.69c-6.64-11.68-11.83-23.59-12.04-37.19c-3.6-1.15-7.1-2.19-10.55-3.37   c-36.33-12.41-51.68-54.41-31.1-85.54c8.58-12.98,20.5-21.57,35.65-25.65c2.02-0.54,4.84-1.8,5.41-3.4   C321.9,442.65,325.24,431.81,328.67,421.27z"/>
	<path class="st0" d="M566.33,476.31c7.57-8.64,14.16-17.11,21.73-24.57c12.21-12.04,25.24-23.23,37.62-35.1   c25.93-24.86,66.96-8.12,76.18,21.87c1.41,4.57,2.59,9.36,2.85,14.11c0.28,5.09,1.84,7.54,7.21,8.55   c12.79,2.4,23.77,8.37,31.92,18.85c24.3,31.29,9.52,74.47-28.96,84.67c-8.99,2.38-8.99,2.38-10.12,11.66   c-3.01,24.88-16.65,41.53-38.98,45.84c-7.67,1.48-15.96,0.99-23.79-0.01c-4.05-0.52-8.25-3.52-11.45-6.43   c-19.2-17.5-38.14-35.29-57.13-53.02c-3.27-3.05-6.37-6.28-9.18-9.06c4.7-10.69,9.22-20.97,14.37-32.68   c12.42,0,25.89,0.06,39.35-0.05c2.46-0.02,4.97-0.54,7.35-1.2c3.37-0.94,6.15-2.51,5.81-6.86c-0.35-4.52-3.74-4.73-6.83-4.86   c-11.98-0.5-23.97-0.87-35.96-1.09c-10.28-0.19-10.05-0.16-13.61-10.06C571.93,489.08,568.48,481.54,566.33,476.31z"/>
	<path class="st0" d="M473.06,564.88c10.71,4.05,20.19,7.47,29.5,11.33c1.36,0.57,2.61,3.17,2.66,4.87   c0.42,13.65,0.43,27.31,0.87,40.96c0.08,2.43,0.93,5.5,2.56,7.09c3.51,3.42,9.29,1.95,11.06-2.81c1.36-3.66,2.1-7.74,2.19-11.65   c0.27-12.63,0.1-25.27,0.1-37.26c10.59-4.14,20.86-8.16,31.13-12.18c-0.12-0.32-0.24-0.64-0.36-0.96c0.3,0.11,0.69,0.13,0.89,0.34   c19.52,20.05,38.96,40.18,58.57,60.14c14.13,14.39,16.4,31.36,8.31,48.71c-8.34,17.89-22.91,29.15-43.56,30.34   c-8.82,0.51-9,0.34-11.35,9.16c-5.75,21.54-19.58,35.46-40.95,40.69c-26.02,6.37-53.12-9.01-60.97-34.98   c-3.06-10.12-6.76-14.53-17.95-16.23c-19.41-2.94-39.43-18.97-41.21-44.49c-0.74-10.58,0.94-21.1,8.2-29.04   C432.81,606.96,453.52,585.54,473.06,564.88z"/>
	<path class="st0" d="M375.4,402.22c9.24,0.23,17.57,2.45,24.35,8.95c20.32,19.46,40.64,38.92,60.81,58.54   c0.93,0.9,0.94,3.6,0.36,5.06c-2.95,7.38-6.66,14.48-9.28,21.96c-2.57,7.32-2.14,7.69-10.2,7.89c-12.32,0.3-24.65,0.31-36.97,0.35   c-3.55,0.01-6.81,0.15-7.18,4.75c-0.33,4.2,1.53,7.39,5.56,8.27c4.83,1.05,9.84,1.57,14.8,1.75c8.65,0.32,17.32,0.21,25.98,0.27   c4.13,0.03,6.54,1.14,8.04,5.95c2.45,7.86,6.69,15.15,9.9,22.79c0.61,1.45,0.66,4.18-0.25,5.08   c-19.54,19.31-38.98,38.74-59.02,57.52c-15.1,14.16-32.66,13.37-50.07,4.92c-19.09-9.27-27.14-25.82-28.36-46.39   c-0.11-1.8-1.81-4.02-3.42-5.1c-1.99-1.33-4.63-1.72-7.01-2.44c-24.83-7.46-42.27-25.44-39.17-57.87   c1.97-20.61,16.8-38.71,38.08-44.32c7.19-1.89,10.54-5.19,12.02-12.74c4.14-21.19,15.2-37.08,37.32-42.86   C366.16,403.39,370.83,402.98,375.4,402.22z"/>
	<path class="st0" d="M555.71,461.95c-11.22-4.03-21.34-7.54-31.31-11.41c-1.26-0.49-2.49-2.88-2.51-4.41   c-0.14-11.49,0.11-22.99,0.06-34.48c-0.01-2.63-0.45-5.32-1.14-7.86c-1.15-4.2-3.93-6.15-8.52-5.98c-4.6,0.17-5.73,3.32-5.92,6.63   c-0.58,10.3-0.73,20.63-1.01,30.95c-0.12,4.49,1.41,10.08-0.72,13.16c-2.04,2.96-7.87,3.25-11.99,4.84   c-3.1,1.19-6.18,2.45-9.17,3.89c-2.83,1.37-5.53,3.02-8.22,4.52c-0.41-0.12-0.82-0.11-1.02-0.3   c-19.52-19.82-39.13-39.54-58.5-59.51c-19.64-20.25-11.52-49.35,4.1-62.83c9.59-8.27,20.4-14.38,33.66-14.42   c4.6-0.01,6.69-2.36,7.64-6.82c4.94-23.29,19.11-37.87,42.28-43.29c24.48-5.73,53.17,11.09,60.53,35.14   c0.68,2.22,1.3,4.46,1.91,6.71c1.98,7.27,2.46,8.13,10.1,8.22c17.62,0.22,30.06,9.43,40.32,22.48   c9.01,11.47,13.82,36.97-0.47,52.36c-10.99,11.83-22.02,23.63-33.21,35.27C573.36,444.37,563.88,453.7,555.71,461.95z"/>
	<path class="st1" d="M625.31,514.57c-2.61,0.48-5.22,1.29-7.84,1.38c-12.32,0.4-24.64,0.79-36.97,0.78c-5-0.01-7.26,1.97-9,6.6   c-3.26,8.69-7.32,17.08-11.21,25.51c-1.51,3.28-2.25,6.15,0.82,9.03c21.52,20.16,43.15,40.21,64.43,60.61   c11.93,11.44,26.08,10.93,40.71,8.88c3.41-0.48,6.72-1.66,9.15-3.32c-16.81,16.74-33.63,33.47-50.44,50.21   c0.41,0.45,0.82,0.9,1.22,1.35c1.04-5.44,2.16-10.86,3.09-16.32c2-11.67-0.47-22.47-8.23-31.31   c-11.53-13.13-23.61-25.79-35.66-38.46c-8.61-9.06-17.66-17.69-26.29-26.73c-3.59-3.77-6.72-4.03-11.42-1.7   c-7.54,3.74-15.44,6.86-23.42,9.55c-7.23,2.43-7.74,2.63-7.6,10.39c0.19,10.66,0.35,21.32,0.32,31.99   c-0.01,3.14-0.43,6.33-1.18,9.38c-0.31,1.25-1.97,2.16-3.02,3.23c-0.58-1.24-1.63-2.47-1.66-3.72c-0.3-11.66-0.43-23.32-0.59-34.98   c-0.03-2.17-0.11-4.34,0.02-6.5c0.3-5.04-1.75-7.71-6.79-9.41c-8.46-2.85-16.65-6.54-24.8-10.22c-3.63-1.64-6.38-1.83-9.36,1.23   c-17.76,18.29-35.61,36.49-53.47,54.68c-9.4,9.57-15.59,20.63-16.7,34.26c-0.78,9.55,1.57,18.44,5.25,26.82   c-18.83-18.55-37.76-37.22-55.49-54.69c4.35,1.3,10.37,3.64,16.6,4.84c14.88,2.87,28.6,0.12,39.82-10.68   c20.16-19.41,40.13-39.02,60.19-58.53c2.68-2.6,2.65-5.37,1.21-8.63c-4-9.1-7.62-18.38-11.85-27.37c-0.97-2.06-3.6-4.29-5.77-4.67   c-5.53-0.95-11.23-0.99-16.87-1.23c-8.32-0.35-16.65-0.45-24.96-0.91c-1.85-0.1-3.64-1.26-5.46-1.93c0.11-0.56,0.23-1.11,0.34-1.67   c1.7-0.11,3.4-0.31,5.11-0.32c10.5-0.1,21-0.08,31.49-0.27c3.48-0.06,7.2,0.01,10.35-1.18c2.43-0.92,4.98-3.35,6.03-5.74   c3.64-8.31,6.26-17.07,10.04-25.3c2.29-4.99,2.14-8.34-1.98-12.27c-18.69-17.82-37.22-35.81-55.61-53.94   c-15.75-15.53-33.84-16.77-53.55-9.6c-1.34,0.49-2.72,0.86-3.52,1.11c18.22-18.56,36.67-37.37,53.81-54.83   c-1.28,4.64-3.63,11.03-4.76,17.63c-2.08,12.23,0.63,23.66,8.61,33.26c6.6,7.93,13.71,15.44,20.92,22.83   c13.03,13.36,26.39,26.4,39.41,39.77c3.5,3.6,6.52,3.84,11,1.69c7.9-3.8,16.06-7.16,24.36-9.99c4.61-1.57,6.4-4.05,6.4-8.67   c0.01-12.5,0.09-25,0.44-37.49c0.06-2.06,1.65-4.07,2.53-6.11c1.09,2.01,3.08,4.01,3.12,6.04c0.25,12.32,0.11,24.65-0.02,36.98   c-0.07,6.8,0.92,7.61,7.28,9.84c8.57,3,17.02,6.47,25.23,10.35c4.19,1.99,7.14,2.32,10.61-1.23c16.64-17.05,33.48-33.91,50.2-50.89   c2.45-2.49,4.6-5.27,6.99-7.82c14.28-15.22,15.61-32.71,9.16-51.6c-0.36-1.06-0.7-2.13-0.92-2.81   c17.87,17.61,35.91,35.38,52.72,51.94c-6.13-1.11-13.85-2.9-21.66-3.84c-10.22-1.22-19.56,1.82-27.52,8.22   c-8.17,6.57-16.16,13.39-23.83,20.54c-14.02,13.06-27.66,26.53-41.63,39.63c-3.55,3.33-3.7,6.27-1.78,10.57   c3.86,8.62,7.41,17.42,10.4,26.38c1.62,4.85,4.38,6.55,9.1,6.64c13.49,0.25,26.98,0.66,40.47,1.03c1.24,0.03,2.47,0.26,3.71,0.4   C625.21,513.71,625.26,514.14,625.31,514.57z M460.89,512.58c0.26,26.33,18.25,52.35,51.57,52.64   c30.52,0.26,51.91-22.37,52.34-51.21c0.44-29.98-22.78-53.82-51.88-53.89C484.93,460.05,461.03,484.15,460.89,512.58z"/>
	<path xmlns="http://www.w3.org/2000/svg" class="st3 " d="M514.37,125.07c15.42,76.36,47.28,144.99,94.63,206.81c-2.68-1.78-5.3-3.66-8.06-5.31   c-6.98-4.18-14.53-6.82-22.69-6.69c-5.1,0.08-7.12-1.94-8.36-6.79c-6.28-24.42-26.48-41.83-50.8-44.3   c-27.2-2.76-53.36,14.9-61.08,41.25c-0.88,3.02-1.63,6.07-2.52,9.39c-14.26-0.03-26.18,5.88-37.59,13.97   C468.17,272.38,497.24,201.67,514.37,125.07z"/>
	<path class="st3" d="M513.74,902.61c-14.85-76.46-46.59-144.89-95.05-206.49c6.31,3.27,11.71,6.71,17.57,8.94   c5.97,2.27,12.4,3.34,19.17,5.08c1.68,4.89,3.25,10.85,5.73,16.4c9.19,20.51,26.15,30.85,47.63,33.12   c22.33,2.36,39.9-7.64,52.56-25.56c4.38-6.2,6.23-14.16,9.51-21.18c0.74-1.59,2.51-3.63,4-3.81c17.5-2.12,17.71-2.11,32.91-10.91   c-22.59,30.34-42.29,62.4-58.23,96.72C533.51,829.41,522.42,865.53,513.74,902.61z"/>
	<path class="st3" d="M697.76,419.4c60.1,48.81,129.47,77.38,204.1,95.09c-74.75,14.59-140.89,47.58-201.32,91.76   c2.45-6.64,5.36-13.58,7.53-20.75c1.38-4.56,0.18-10.73,2.85-13.84c2.67-3.11,8.84-3.04,13.29-4.81   c22.9-9.08,37.85-32.16,36.51-56.1c-1.45-25.89-18.76-47.15-44.06-53.56c-4.54-1.15-6.89-2.53-7.31-7.75   C708.47,438.48,704.39,428.51,697.76,419.4z"/>
	<path class="st3" d="M328.67,421.27c-3.43,10.55-6.77,21.39-10.62,32.04c-0.58,1.6-3.4,2.86-5.41,3.4   c-15.14,4.08-27.07,12.67-35.65,25.65c-20.58,31.13-5.23,73.13,31.1,85.54c3.45,1.18,6.95,2.22,10.55,3.37   c0.21,13.6,5.4,25.51,12.04,37.19c-60.32-46.38-127.27-78.31-201.98-94.69C202.77,497.96,269.57,466.85,328.67,421.27z"/>
	<path d="M460.89,512.58c0.13-28.43,24.03-52.53,52.03-52.46c29.1,0.07,52.32,23.91,51.88,53.89   c-0.42,28.84-21.82,51.47-52.34,51.21C479.15,564.93,461.16,538.91,460.89,512.58z M465.95,512.37   c-0.04,23.96,16.62,47.75,46.67,47.87c27.6,0.11,46.76-20.23,47.2-46.25c0.46-27.08-20.46-48.64-46.8-48.84   C487.91,464.96,466.09,486.85,465.95,512.37z"/>
	<path class="st0" d="M465.95,512.37c0.14-25.52,21.96-47.41,47.07-47.22c26.34,0.2,47.26,21.76,46.8,48.84   c-0.44,26.02-19.61,46.35-47.2,46.25C482.56,560.12,465.91,536.33,465.95,512.37z"/>
</g>
</svg>